<svg width="620" height="606" viewBox="0 0 620 606" fill="none" xmlns="http://www.w3.org/2000/svg">
<path d="M4.9739 413.89C11.2109 426.84 27.4804 440.635 39.1964 448.445C79.6164 475.38 127.072 470.815 173.314 470.815L478.298 470.835C497.353 470.875 513.823 471.44 532.658 467.42C567.638 459.955 594.833 444.005 614.653 413.975C611.738 443.085 607.483 472.3 603.633 501.31C602.488 509.915 601.283 518.805 599.183 527.22C598.448 531.15 596.798 535.55 595.303 539.21C580.693 575.005 547.028 599 509.083 604.165C498.923 605.55 489.918 605.32 479.703 605.32L138.578 605.35C131.656 605.355 121.619 605.695 114.889 605.085C86.9339 602.54 58.8379 588.57 40.8964 566.775C32.2864 556.475 25.6559 544.67 21.3394 531.955C17.1284 519.405 15.4339 504.895 13.6729 491.785C11.5454 476.08 9.59639 460.35 7.82639 444.595C7.10889 438.455 4.4734 419.205 4.9739 413.89ZM310.613 589.985C323.928 588.845 334.543 584.71 343.378 574.455C353.403 562.825 355.063 546.375 347.278 533.145C340.743 522.045 332.373 512.855 325.143 502.265C321.618 497.005 317.883 489.86 314.078 484.75C313.303 483.705 310.503 483.285 309.083 483.08C307.443 483.565 304.888 484.29 303.913 485.865C295.677 499.175 286.278 511.58 276.812 524.025C253.388 554.825 273.529 588.91 310.613 589.985Z" fill="#FEFEFE"/>
<path d="M56.3763 152.998L56.7438 153.292C57.7863 157.635 48.7648 167.538 56.2253 182.634C48.4903 192.851 44.7258 199.741 42.9958 212.762C38.1458 249.269 34.5773 285.963 29.9413 322.502C28.6723 332.5 26.8863 345.33 27.8988 355.15C31.9418 394.36 70.0988 420.28 106.455 426.03C121.226 428.42 132.947 427.99 146.956 427.98H473.373C484.348 427.98 493.703 427.95 504.683 426.845C542.138 423.23 585.343 398.16 590.453 357.635C592.578 340.755 588.343 317.779 586.383 300.373L576.518 213.731C573.763 189.364 577.528 177.439 562.088 156.261C581.343 163.509 594.988 180.84 599.428 200.621C601.208 209.67 602.448 220.142 603.728 229.344L609.648 271.604L615.838 317.45C617.493 330.43 620.188 346.25 618.553 359.05C614.978 386.97 599.848 409.01 578.148 426.045C557.368 442.045 532.878 452.53 506.953 456.525C494.103 458.56 483.263 458.165 470.393 458.165L141.86 458.195C133.443 458.195 123.733 458.455 115.535 457.345C78.5343 452.335 41.2763 434.94 18.2883 404.79C-2.24622 377.855 -1.82422 354.49 2.16328 323.208C5.69778 296.118 9.40327 269.05 13.2793 242.007C14.9793 229.89 17.4763 207.348 20.4818 195.985C22.1163 189.862 24.6493 184.015 27.9978 178.635C36.2448 165.584 45.3008 161.569 56.3763 152.998Z" fill="#FEFEFE"/>
<path d="M190.161 0.226827C192.332 0.0118271 196.51 0.020825 198.798 0.015325L402.954 0.0133261C417.484 0.0243261 434.669 -0.39118 448.689 2.67632C467.134 6.73782 484.019 16.0303 497.319 29.4403C529.924 62.2393 525.559 92.6008 525.474 134.686C512.654 132.827 496.024 128.991 483.199 126.375L425.444 115.134C424.739 96.7323 429.039 71.6693 415.444 58.7853C402.904 46.9033 389.539 47.9388 373.804 48.0198L344.834 48.1018C340.874 34.1343 333.039 22.9113 318.174 19.8043C296.471 15.2668 279.979 26.6668 275.676 47.9303C264.254 48.1693 229.044 47.0838 220.344 49.3538C214.732 50.8403 209.561 53.6578 205.269 57.5663C200.663 61.7328 197.327 67.1138 195.644 73.0913C193.014 82.2243 193.97 93.5128 193.791 103.049C193.52 117.492 194.322 132.86 193.62 147.229C187.226 148.279 174.521 150.9 168.716 153.083C166.269 150.159 165.428 149.204 163.626 145.877C173.301 138.123 177.949 130.987 171.07 118.487C163.914 105.484 151.717 98.1018 137.419 106.514C128.467 95.0243 121.572 78.2213 109.468 70.4538C106.769 68.7223 102.208 66.9608 99.1201 65.7308C106.471 42.4103 125.44 21.1003 147.263 10.2748C161.764 3.08182 174.301 0.872827 190.161 0.226827Z" fill="#FEFEFE"/>
<path d="M417.163 127.174C420.553 126.569 427.373 126.986 430.738 127.586C458.148 132.473 485.323 138.579 512.738 143.46C518.013 144.399 524.268 145.468 529.398 146.93C534.118 148.328 538.623 150.377 542.778 153.019C572.778 172.226 558.793 210.128 553.063 237.899C550.753 249.276 548.368 260.64 545.918 271.988C540.088 298.88 535.598 315.17 505.103 320.777C504.173 319.497 502.428 315.661 501.623 314.082C485.688 282.807 455.208 284.992 425.363 285.018L388.133 284.982C383.778 285.005 371.043 286.023 368.293 283.707C355.313 272.774 362.798 248.456 365.723 235.259L372.668 203.565L378.843 174.887C384.083 150.157 388.483 131.48 417.163 127.174ZM483.818 255.032C485.818 254.403 488.068 253.664 489.093 251.644C491.338 247.204 498.638 211.882 499.288 206.353C499.523 204.352 499.963 200.601 498.853 198.856C496.178 194.645 446.783 186.207 439.898 185.648C438.218 185.936 434.443 186.513 433.618 188.515C429.293 198.996 428.148 211.1 425.408 222.167C424.178 227.121 420.853 239.953 424.303 244.116C429.638 247.068 476.328 254.634 483.818 255.032ZM415.903 155.146C409.508 156.623 409.398 161.356 408.168 167.411C406.823 174.044 403.978 182.1 405.138 188.85C406.018 193.978 413.993 195.473 416.723 191.121C419.353 184.485 420.013 176.228 422.168 169.255C430.443 169.764 440.208 173.816 448.273 173.276C452.818 172.972 455.338 161.847 446.763 160.388C437.743 158.853 424.963 154.741 415.903 155.146ZM494.628 170.015C480.543 184.031 512.028 186.041 519.728 187.304C518.453 193.345 517.158 199.406 515.888 205.448C514.373 212.646 518.453 219.529 526.163 215.442C529.248 211.641 537.313 181.484 532.288 178.726C525.003 174.729 502.573 169.742 494.628 170.015ZM399.433 223.081C397.058 224.442 395.513 225.02 394.948 227.87C393.663 234.159 391.963 241.025 390.938 247.315C389.783 254.356 385.638 264.359 395.808 265.815C405.423 267.192 416.993 270.298 426.573 270.789C429.863 269.888 431.533 269.048 431.978 265.423C432.788 258.834 423.508 258.127 419.273 257.371C414.173 256.461 409.403 255.587 404.483 254.648C405.963 244.684 416.238 221.592 399.433 223.081ZM500.008 272.877C492.008 271.097 483.878 269.811 475.813 268.322C473.758 269.085 471.368 269.849 470.533 271.955C468.063 278.189 476.418 280.734 480.048 281.732C486.633 283.379 502.878 287.461 508.928 286.398C513.458 282.477 515.118 274.387 516.278 268.639C517.638 261.886 524.143 244.569 512.148 244.443C511.383 244.439 510.623 244.471 509.863 244.538C506.513 246.407 505.778 247.779 504.743 251.641C502.883 258.578 501.658 265.879 500.008 272.877Z" fill="#FEFEFE"/>
<path d="M136.686 298.075C137.598 298.015 138.512 297.974 139.427 297.951C165.701 297.279 193.026 298.211 219.443 297.891C232.427 297.734 248.672 297.352 261.413 298.525C268.564 299.739 276.078 303.613 281.181 308.522C295.788 322.574 293.076 343.635 293.067 362.27C292.985 379.51 293.051 396.745 293.266 413.985L269.433 414.06C269.174 406.81 270.931 390.87 266.914 384.5C266.415 383.71 263.995 382.72 262.942 382.74C251.443 383.005 239.969 383.04 228.455 383.025C222.83 382.95 209.822 381.245 205.848 385.33C202.95 388.305 204.698 409.03 204.806 414.03C200.769 414.185 196.257 414.1 192.185 414.12C191.774 408.625 193.364 388.27 190.457 385.085C188.907 383.39 186.977 383.025 184.775 382.97C173.982 382.72 163.107 382.99 152.308 382.985C145.54 382.98 137.944 382.355 131.264 383.375C130.351 383.515 129.889 383.665 129.245 384.345C125.195 388.625 126.913 407.75 126.992 414.055C119.337 413.915 111.321 414.035 103.638 414.035C103.086 393.865 104.251 373.24 103.724 353.015C103.541 345.98 103.108 337.17 104.075 330.28C104.774 325.167 106.553 320.259 109.292 315.883C115.871 305.431 125.024 300.684 136.686 298.075ZM177.303 371.5C180.975 371.53 186.853 372.05 189.741 370.21C190.969 368.305 191.391 366.46 191.6 364.205C192.054 359.31 192.299 324.608 191.305 320.475C190.925 318.896 190.194 317.116 188.736 316.238C185.076 314.034 150.073 314.693 143.491 315.154C137.844 316.445 133.241 318.378 130.043 323.54C128.596 325.875 127.693 328.54 127.263 331.245C126.619 335.295 126.268 362.93 127.251 366.63C127.623 368.035 128.637 369.865 129.934 370.61C133.486 372.65 170.093 371.475 177.303 371.5ZM204.724 367.25C205.925 368.965 207.361 371.335 209.7 371.32C227.685 371.19 247.343 372.325 265.226 371.375C272.273 367.59 268.637 351.745 269.331 343.955C271.966 314.414 254.231 313.948 231.03 315.074C225.005 315.309 215.672 314.716 208.819 315.068C207.213 316.138 205.017 317.632 204.924 319.668C204.339 332.395 203.792 355.09 204.724 367.25Z" fill="#FEFEFE"/>
<path d="M234.015 73.211C235.063 73.044 235.424 73.0975 236.493 73.1045C238.776 75.7955 234.127 104.987 241.117 110.73C248.482 116.78 254.57 115.876 263.86 115.91L328.424 115.822C341.499 115.862 355.334 116.292 368.289 115.191C386.614 113.633 382.434 86.741 382.444 73.757C407.579 77.137 403.069 98.31 402.874 117.708C371.419 126.778 369.794 161.678 363.544 187.991C357.004 215.539 351.914 243.804 345.094 271.237C330.624 271.975 315.529 271.093 300.999 271.471C296.372 271.591 290.625 271.645 286.069 271.175C284.508 270.162 284.968 270.32 284.175 268.121C281.438 255.389 276.943 242.074 274.197 229.056C286.033 228.799 298.029 229.269 309.779 228.976C316.839 228.8 335.139 231.689 334.879 221.278C334.919 215.935 332.359 212.308 326.614 212.275C307.449 212.165 287.274 211.571 268.18 212.292C266.743 208.528 264.555 199.931 263.361 195.724C277.387 194.967 334.899 197.19 342.309 194.423C345.024 193.409 346.009 191.019 347.179 188.584C346.844 185.076 346.519 179.651 341.654 179.401C333.374 178.976 324.889 179.256 316.569 179.242C296.62 179.136 276.673 179.174 256.727 179.355C248.396 162.026 235.017 148.53 214.967 146.988C214.714 132.484 215.071 117.834 214.882 103.347C214.686 88.3395 215.837 75.1075 234.015 73.211ZM315.104 160.947C321.454 157.398 320.639 154.737 319.719 148.197C317.909 145.89 316.959 144.272 313.769 144.264C294.245 144.216 273.488 143.32 254.042 144.12C251.527 146.457 251.12 147.586 250.881 150.95C250.25 159.851 256.59 161.348 263.904 161.188C280.857 160.817 298.174 161.751 315.104 160.947Z" fill="#FEFEFE"/>
<path d="M172.355 164.001L193.174 160.729C205.792 158.752 219.165 155.768 230.403 164.007C246.433 175.759 248.838 196.119 253.816 213.917C255.347 219.392 256.773 224.936 258.261 230.432L267.183 263.862C268.958 270.302 271.649 278.704 272.864 285.036L187.3 285.055C145.912 285.012 102.879 279.364 88.8672 329.59C88.4217 331.72 87.7732 333.42 87.0622 335.46C86.0832 333.25 85.3902 331.42 84.5652 329.165C79.2047 310.88 72.4142 292.682 67.6017 274.206C63.8367 259.753 56.8957 241.588 56.7317 226.662C56.7087 220.588 58.2002 214.603 61.0712 209.25C62.4662 206.688 65.5157 202.252 68.3327 201.38C71.3867 201.705 77.9962 203.027 80.2517 203.072C87.8477 203.226 98.1327 198.219 104.806 194.987C118.208 214.093 133.664 232.718 147.614 251.507C156.891 264.001 167.567 261.13 179.276 264.702C184.058 270.038 188.25 273.445 195.873 273.799C201.356 274.054 206.621 272.226 210.567 268.368C214.402 264.592 216.471 259.378 216.269 254.001C216.014 246.115 212.209 241.235 207.344 235.653C210.209 221.995 209.298 216.915 201.858 205.033C193.506 191.695 180.507 176.84 172.355 164.001Z" fill="#FEFEFE"/>
<path d="M353.208 297.757C385.353 298.663 417.973 297.344 450.178 297.859C454.958 297.935 460.213 297.824 464.853 299.213C497.078 308.862 493.978 339.395 493.958 366.13L493.973 414.005C482.513 414.11 471.058 414.09 459.603 413.94C460.448 413.195 462.543 411.495 463.128 410.71C481.943 385.52 456.383 400.605 449.213 400.885C422.733 401.92 405.323 384.68 403.048 358.875C403.993 346.675 405.578 340.925 414.278 331.645C416.063 329.74 418.778 326.96 420.283 324.834C420.773 324.145 420.453 324.03 420.078 322.935C418.523 321.716 417.773 321.572 415.853 321.502C383.873 320.362 354.393 345.245 353.193 377.77C352.743 389.89 356.918 404.975 365.223 414.02C347.898 414.4 330.273 413.715 312.883 414.155C312.858 413.7 312.838 413.25 312.823 412.795C312.358 397.4 313.073 380.39 312.773 364.815C312.628 357.155 312.298 334.21 313.713 327.68C315.198 320.688 318.588 314.244 323.513 309.065C332.053 300.262 341.433 297.991 353.208 297.757Z" fill="#FEFEFE"/>
<path d="M307.678 28.1337C323.918 26.4187 336.283 42.7362 334.393 58.0152C340.423 57.9802 366.513 56.4307 369.988 59.8472C372.193 62.0162 372.873 66.0897 373.058 69.0272C373.543 76.9087 374.573 97.6277 369.303 103.183C368.393 104.145 367.328 104.771 366.008 105.016C359.998 106.136 353.143 105.454 347.028 105.446L311.803 105.426L276.61 105.467C269.249 105.481 257.769 105.977 251.035 104.451C247.279 101.073 246.46 96.8957 246.143 92.0367C245.697 85.2032 244.368 64.8287 249.032 59.9197C252.243 56.5387 278.068 57.9462 283.852 57.9247C284.148 42.0877 291.099 30.8567 307.678 28.1337ZM302.283 44.9157C299.168 47.7317 298.018 52.1242 299.353 56.1047C300.893 60.7012 305.363 63.6587 310.198 63.2782C315.978 62.8232 320.313 57.7872 319.903 52.0002C319.493 46.2127 314.488 41.8402 308.698 42.2072C306.313 42.3582 304.053 43.3127 302.283 44.9157Z" fill="#FEFEFE"/>
<path d="M148.712 149.631C151.034 151.785 159.397 163.578 162.046 167.104C172.369 180.876 182.626 194.703 192.694 208.661C199.923 218.682 201.044 227.665 196.553 239.107C199.484 242.75 203.465 247.249 203.929 252.001C204.461 257.462 201.039 261.572 195.463 261.602C189.276 261.635 186.126 258.19 181.951 254.292C178.824 253.379 174.139 253.202 170.744 252.598C160.442 250.763 156.202 245.56 150.647 237.741C135.863 218.871 122.269 198.538 107.256 179.771C110.374 177.543 114.404 175.102 117.68 172.997C122.166 178.529 127.121 185.713 131.814 190.653C141.967 190.366 152.966 189.351 163.028 189.619C156.179 179.521 144.838 166.441 139.03 156.394C142.236 154.11 145.464 151.856 148.712 149.631ZM184.252 238.143C191.977 226.924 181.119 212.45 172.361 205.33C167.478 201.36 148.698 204.226 141.012 203.147C142.199 206.034 145.377 210.708 147.504 213.096C155.544 222.117 169.21 249.779 184.252 238.143Z" fill="#FEFEFE"/>
<path d="M79.2606 74.6025C100.21 73.276 104.928 80.913 115.579 97.127C119.113 102.577 122.731 107.971 126.434 113.307C121.958 116.031 115.382 121.124 111.132 124.277L88.9471 140.611C84.7626 143.297 79.6791 147.654 75.1296 150.715C66.9961 140.855 54.5161 124.844 51.9646 112.588C47.9586 93.344 60.5226 78.1615 79.2606 74.6025Z" fill="#FEFEFE"/>
<path d="M146.266 114.149C154.844 112.997 160.702 120.016 161.183 127.69C161.325 129.959 145.242 140.314 142.603 142.202L108.655 166.64C103.867 170.092 85.312 184.188 81.1105 186.398C72.925 189.922 68.264 182.017 66.751 175.195C67.2705 173.567 67.7635 171.82 68.545 170.3C71.987 163.602 130.511 122.463 139.975 116.799C142.006 115.584 144.015 114.828 146.266 114.149Z" fill="#FEFEFE"/>
</svg>
